# xmcd CD database file
#
# Track frame offsets:
#	183
#	17108
#	27708
#	40183
#	59233
#	72533
#	87345
#	100170
#	116558
#	133270
#	147408
#	162283
#	172908
#	188008
#
# Disc length: 2700 seconds
#
# Revision: 1
# Processed by: cddbd v1.5.2PL0 Copyright (c) Steve Scherf et al.
# Submitted via: CDex 1.70beta2
#
DISCID=cf0a8a0e
DTITLE=AA.VV. - 26 - Le Canzoni dei Fiori
DYEAR=1900
DGENRE=Pop
TTITLE0=N. Pizzi - Grazie dei fiori
TTITLE1=F. Buscaglione - Boccuccia di rosa
TTITLE2=F. Raimondi - Aprite le finestre
TTITLE3=S. Bruni - Ll'ultime rrose
TTITLE4=N. Pizzi - Papaveri e papere
TTITLE5=O. Carboni - Portami tante rose
TTITLE6=N. Gallo - Chella d' 'e rrose
TTITLE7=N. Bongiovanni - B. Pallesi - Canto nella valle
TTITLE8=N. Pizzi - Come le rose
TTITLE9=N. Gallo - 'E rrose e tu
TTITLE10=C. Villa - Madonna delle rose
TTITLE11=M. Doris Rose - D' 'o mese 'e maggio
TTITLE12=W. Osiris - Sentimental
TTITLE13=A. Clerici - Fiorellin del prato
EXTD=
EXTT0=
EXTT1=
EXTT2=
EXTT3=
EXTT4=
EXTT5=
EXTT6=
EXTT7=
EXTT8=
EXTT9=
EXTT10=
EXTT11=
EXTT12=
EXTT13=
PLAYORDER=
